PathFileType	4	(X/Y/Z)	C:/Users/opensim2020/Desktop/walking_exp_matlab/subject02_walking04_straight_02.trc	
DataRate	CameraRate	NumFrames	NumMarkers	Units	OrigDataRate	OrigDataStartFrame	OrigNumFrames	
100.00	100.00	4	42	mm	100.00	1661	220	
Frame#	Time	LFHD			RFHD			LBHD			RBHD			C7			T10			CLAV			STRN			RBAK			LSHO			LUPA			LELB			LFRM			LWRA			LWRB			LFIN			RSHO			RUPA			RELB			RFRM			RWRA			RWRB			RFIN			LASI			RASI			LPSI			RPSI			LTHI			LKNE			LTIB			LANK			LHEE			LTOE			RTHI			RKNE			RTIB			RANK			RHEE			RTOE			*39			*40			*41			
		X1	Y1	Z1	X2	Y2	Z2	X3	Y3	Z3	X4	Y4	Z4	X5	Y5	Z5	X6	Y6	Z6	X7	Y7	Z7	X8	Y8	Z8	X9	Y9	Z9	X10	Y10	Z10	X11	Y11	Z11	X12	Y12	Z12	X13	Y13	Z13	X14	Y14	Z14	X15	Y15	Z15	X16	Y16	Z16	X17	Y17	Z17	X18	Y18	Z18	X19	Y19	Z19	X20	Y20	Z20	X21	Y21	Z21	X22	Y22	Z22	X23	Y23	Z23	X24	Y24	Z24	X25	Y25	Z25	X26	Y26	Z26	X27	Y27	Z27	X28	Y28	Z28	X29	Y29	Z29	X30	Y30	Z30	X31	Y31	Z31	X32	Y32	Z32	X33	Y33	Z33	X34	Y34	Z34	X35	Y35	Z35	X36	Y36	Z36	X37	Y37	Z37	X38	Y38	Z38	X39	Y39	Z39	X40	Y40	Z40	X41	Y41	Z41	X42	Y42	Z42	

166	1.650	1507.10217	-406.13724	1716.05432	1363.92542	-396.84549	1699.48181	1520.80615	-267.01550	1659.76733	1379.03723	-245.81934	1644.31897	1439.08276	-192.55626	1522.93225	1424.40210	-126.36684	1247.28308	1459.40491	-325.15753	1443.12964	1443.39307	-369.63882	1271.81384	1362.92810	-130.83879	1353.19934	1622.43115	-241.62773	1484.87878	1691.11304	-164.22453	1297.87366	1694.57336	-121.95317	1162.55505	1703.94299	-91.36311	1033.49719	1673.30408	-112.86866	895.85895	1702.18762	-66.26575	912.16754	1702.12854	-63.52471	844.64923	1261.43445	-282.45883	1492.28943	1154.28113	-289.37796	1314.01099	1116.64966	-341.97299	1178.08533	1101.11121	-417.43787	1082.76978	1125.02869	-509.92401	987.44122	1087.07813	-473.43430	966.05109	1086.58630	-535.38049	929.95569	1555.95056	-358.14258	980.19122	1297.60352	-349.47070	965.43079	1481.15686	-146.41183	1025.23108	1367.14014	-137.84688	1026.49976	1633.20593	-341.55075	678.59875	1605.06152	-382.38440	482.92496	1607.22595	-389.54514	289.36737	1595.22766	-475.38495	77.90748	1537.53333	-462.21805	44.07150	1627.43982	-631.77032	79.61344	1253.74438	-234.41640	662.66174	1301.75427	-196.70052	455.85492	1300.97009	-118.62774	282.75055	1347.52319	-65.03005	97.65243	1405.09399	-22.96932	46.93066	1332.62073	-210.03734	34.97500	1422.52332	-310.21939	1796.67554	-3356.98828	2845.80103	1033.77686			 
167	1.660	1508.11768	-415.34985	1714.81580	1364.82178	-405.82159	1698.04028	1521.81885	-276.09189	1658.64441	1380.08850	-254.83791	1642.98120	1440.29785	-201.58858	1521.73376	1425.93604	-135.25471	1245.96790	1460.46521	-333.74124	1441.80530	1444.38647	-378.56216	1270.60242	1364.65540	-139.08611	1352.05774	1623.58301	-250.65594	1483.66406	1692.34583	-172.60130	1297.04138	1695.60205	-129.61943	1162.00122	1704.40930	-98.44741	1032.86157	1674.19836	-118.71580	895.31116	1703.03394	-72.21695	911.91376	1702.62219	-68.89861	844.39020	1262.37598	-291.19971	1490.84961	1155.92773	-298.39767	1312.44592	1117.81201	-352.01788	1176.95740	1102.19592	-428.82800	1082.48120	1126.30554	-522.45135	988.59772	1088.55969	-486.03122	966.41327	1087.79224	-548.49188	931.32349	1556.03113	-368.05334	978.88702	1297.68921	-357.93854	964.10150	1482.96399	-155.80177	1023.88934	1369.00085	-146.73592	1025.16089	1633.97290	-352.24692	677.53009	1605.33594	-392.69128	481.52917	1608.38062	-403.18970	288.02554	1597.07288	-492.26617	78.40237	1539.83557	-478.55048	44.25994	1626.21570	-649.57404	82.52359	1254.21973	-240.68050	661.90900	1302.00537	-201.22087	455.17728	1301.16382	-121.25372	283.35590	1347.64709	-65.70718	98.67855	1405.40955	-23.34518	48.26127	1332.38574	-210.10591	34.76387	1423.37183	-319.39816	1795.39368						 
168	1.670	1509.04236	-424.50320	1713.48584	1365.73669	-414.89722	1696.59326	1522.92322	-285.12320	1657.54541	1381.24780	-263.84302	1641.77393	1441.49158	-210.37938	1520.45251	1427.59912	-144.24033	1244.63184	1461.68726	-342.71185	1440.60632	1445.43811	-387.49997	1269.35559	1365.85132	-148.51749	1350.58496	1624.83740	-259.70557	1482.44421	1693.31775	-181.53882	1295.81323	1696.51233	-137.91043	1161.11218	1705.41260	-105.97279	1032.31238	1675.16748	-125.23795	894.51007	1704.00183	-78.86198	911.40839	1703.32874	-74.93935	843.88379	1263.67285	-299.67969	1489.51318	1157.19385	-307.39185	1310.63879	1119.08740	-362.00864	1175.85706	1103.66321	-439.67111	1082.09900	1127.60852	-534.53571	989.40149	1090.22363	-498.22879	966.57416	1089.18860	-561.10876	932.41766	1556.33606	-378.11890	977.68805	1297.95496	-366.58334	962.68134	1484.76770	-165.27783	1022.55188	1370.90381	-155.72348	1023.84912	1634.63574	-363.58398	676.41840	1605.65540	-403.05640	480.18881	1609.56616	-415.99356	286.98895	1598.19995	-508.12918	78.34459	1541.95703	-494.07870	43.43503	1625.15808	-665.58972	84.58077	1254.87500	-247.15646	661.33105	1302.24548	-206.12071	454.83737	1301.44067	-124.04315	283.99979	1347.76794	-66.39991	99.85714	1405.63208	-23.83884	49.82439	1332.17395	-210.19347	34.70932	1424.37573	-328.61896	1794.16431	-3357.03540	2845.81445	1033.61267			 
169	1.680	1510.10791	-433.70694	1712.05054	1366.74341	-423.97217	1695.16003	1524.29358	-294.20694	1656.47546	1382.47083	-272.78900	1640.63379	1442.80017	-219.28386	1519.25281	1429.21301	-153.32957	1243.30725	1462.89587	-351.66010	1439.37634	1446.60864	-396.60098	1268.20020	1367.83020	-156.71855	1349.39038	1626.15979	-268.78647	1481.25891	1694.61389	-190.46849	1294.69873	1697.36914	-146.81071	1159.92700	1706.93347	-113.83598	1031.69568	1676.30579	-132.39607	893.55994	1705.23230	-86.21764	910.79193	1704.31665	-81.65326	843.05847	1264.84119	-308.34238	1488.04541	1158.58826	-316.31821	1309.17200	1120.46729	-372.00568	1174.64966	1105.11194	-450.69849	1081.60376	1129.22852	-546.01288	989.88367	1092.06348	-509.99548	966.57813	1090.86707	-573.02020	933.16675	1556.81958	-388.11685	976.47021	1298.40405	-375.38019	961.25983	1486.55127	-174.85751	1021.24243	1372.82983	-164.85576	1022.50378	1635.23511	-375.38785	675.42371	1606.09326	-413.64041	478.95151	1610.85461	-427.90106	286.21500	1599.36462	-522.31110	78.16574	1543.40210	-507.45929	43.19112	1624.20557	-679.87012	86.04739	1255.48425	-253.77657	660.81738	1302.47314	-211.11021	454.59763	1301.71143	-127.23524	284.77850	1347.75586	-67.16094	101.16703	1405.67822	-24.24282	51.44810	1331.92859	-210.26512	34.64468	1425.35413	-337.91342	1792.89441	-3360.17773	2845.02930	1033.78955			 
